<svg width="88" height="58" viewBox="0 0 88 58" fill="none" xmlns="http://www.w3.org/2000/svg">
<path opacity="0.2" d="M26.4512 39.3418H22.2031V53.082H26.4512V39.3418ZM26.4512 30.9043H12.1836V29.6445H27.0957V26.334H7.99414V33.9219H22.2617V35.0938H7.93555V38.3457H26.4512V30.9043ZM19.5664 48.2773H17.4863V43.4287C18.5312 43.5166 19.5371 43.6191 20.5039 43.7363L20.6797 40.748C18.2871 40.3379 15.7529 40.0645 13.0771 39.9277C10.4111 39.791 7.60352 39.7227 4.6543 39.7227L4.21484 42.9746L6.91016 43.0039V48.2773H4.91797V51.4707H19.5664V48.2773ZM13.4434 43.1797V48.2773H10.9531V43.0918L13.4434 43.1797ZM54.2539 36.3242H29.6738V39.6055H54.2539V36.3242ZM51.3535 45.1719H36.8809V43.9707H51.8223V40.7773H32.6914V48.1895H47.1055V49.3906H32.6621V52.6133H51.3535V45.1719ZM51.4707 26.4805H32.7793V34.8887H51.4707V26.4805ZM36.9102 29.8496H47.3105V31.5781H36.9102V29.8496ZM57.6877 50.78H82.1377V47.6H57.6877V50.78ZM59.0677 46.1H80.9377V43.07H59.0677V46.1ZM56.4877 41.51H83.3377V38.3H56.4877V41.51ZM56.2777 36.47H83.6677V33.32H56.2777V36.47ZM68.0077 48.8H71.6977V38.96H68.0077V48.8ZM61.3177 53.3L64.5277 54.56C65.4577 53.54 66.3577 52.13 66.7477 51.08L63.3877 49.64C63.0877 50.69 62.2177 52.22 61.3177 53.3ZM74.7577 54.56L78.5977 53.6C77.6677 52.22 76.7077 50.96 75.9577 50.09L72.6877 51.02C73.4077 52.01 74.2777 53.51 74.7577 54.56ZM67.5877 38.87H71.3977C70.7077 32.18 68.9077 28.16 57.5377 26.33C57.2677 27.29 56.4277 28.76 55.7377 29.54C65.9677 30.89 67.0477 33.71 67.5877 38.87ZM72.2377 35.51C74.0077 31.76 77.7877 30.02 84.2977 29.57C83.5477 28.79 82.5877 27.26 82.1377 26.24C74.9377 27.11 71.2177 29.6 68.9377 34.94L72.2377 35.51Z" fill="#E1E1E1"/>
<path d="M26.4512 18.6582H22.2031V4.91797H26.4512V18.6582ZM26.4512 27.0957H12.1836V28.3555H27.0957V31.666H7.99414V24.0781H22.2617V22.9062H7.93555V19.6543H26.4512V27.0957ZM19.5664 9.72266H17.4863V14.5713C18.5312 14.4834 19.5371 14.3809 20.5039 14.2637L20.6797 17.252C18.2871 17.6621 15.7529 17.9355 13.0771 18.0723C10.4111 18.209 7.60352 18.2773 4.6543 18.2773L4.21484 15.0254L6.91016 14.9961V9.72266H4.91797V6.5293H19.5664V9.72266ZM13.4434 14.8203V9.72266H10.9531V14.9082L13.4434 14.8203ZM54.2539 21.6758H29.6738V18.3945H54.2539V21.6758ZM51.3535 12.8281H36.8809V14.0293H51.8223V17.2227H32.6914V9.81055H47.1055V8.60938H32.6621V5.38672H51.3535V12.8281ZM51.4707 31.5195H32.7793V23.1113H51.4707V31.5195ZM36.9102 28.1504H47.3105V26.4219H36.9102V28.1504ZM57.6877 7.22H82.1377V10.4H57.6877V7.22ZM59.0677 11.9H80.9377V14.93H59.0677V11.9ZM56.4877 16.49H83.3377V19.7H56.4877V16.49ZM56.2777 21.53H83.6677V24.68H56.2777V21.53ZM68.0077 9.2H71.6977V19.04H68.0077V9.2ZM61.3177 4.7L64.5277 3.44C65.4577 4.46 66.3577 5.87 66.7477 6.92L63.3877 8.36C63.0877 7.31 62.2177 5.78 61.3177 4.7ZM74.7577 3.44L78.5977 4.4C77.6677 5.78 76.7077 7.04 75.9577 7.91L72.6877 6.98C73.4077 5.99 74.2777 4.49 74.7577 3.44ZM67.5877 19.13H71.3977C70.7077 25.82 68.9077 29.84 57.5377 31.67C57.2677 30.71 56.4277 29.24 55.7377 28.46C65.9677 27.11 67.0477 24.29 67.5877 19.13ZM72.2377 22.49C74.0077 26.24 77.7877 27.98 84.2977 28.43C83.5477 29.21 82.5877 30.74 82.1377 31.76C74.9377 30.89 71.2177 28.4 68.9377 23.06L72.2377 22.49Z" fill="black"/>
</svg>
