<svg width="35" height="33" viewBox="0 0 35 33" fill="none" xmlns="http://www.w3.org/2000/svg">
<g id="Group 1000003222">
<path id="Vector" d="M19.8801 12.8135C18.9778 12.8135 18.2786 13.5127 18.2786 14.3759C18.2786 15.2391 18.9778 15.9383 19.8801 15.9383C20.7043 15.9383 21.4034 15.2391 21.4034 14.3759C21.4034 13.5127 20.7043 12.8135 19.8801 12.8135ZM8.94326 12.8135C8.04097 12.8135 7.3418 13.5127 7.3418 14.3759C7.3418 15.2391 8.04097 15.9383 8.94326 15.9383C9.76743 15.9383 10.4666 15.2391 10.4666 14.3759C10.4666 13.5127 9.76743 12.8135 8.94326 12.8135Z" fill="#6069E4"/>
<path id="Vector_2" d="M32.4194 9.84489C30.5406 7.26693 27.9157 5.54438 25.037 4.76708V4.77099C24.3691 4.02884 23.6152 3.34529 22.7715 2.73595C16.3774 -1.9122 7.40137 -0.494316 2.73369 5.89982C-1.0278 11.0948 -0.867655 18.0827 2.96805 23.0472L2.99929 28.2266C2.99929 28.3516 3.01883 28.4766 3.05789 28.5937C3.2649 29.2539 3.96799 29.6171 4.6242 29.4101L9.5692 27.8516C10.8777 28.3164 12.2292 28.582 13.5729 28.6562L13.5533 28.6719C17.0336 31.2069 21.5958 31.9685 25.7791 30.5858L30.7437 32.2029C30.8687 32.242 30.9976 32.2654 31.1304 32.2654C31.8217 32.2654 32.3803 31.7068 32.3803 31.0155V25.7814C35.8215 21.1098 35.9113 14.6532 32.4194 9.84489ZM10.116 25.0783L9.64732 24.883L5.78037 26.0939L5.74131 22.0316L5.42883 21.6801C2.12435 17.6491 1.90561 11.8409 4.99917 7.57941C8.76457 2.41566 15.9829 1.27511 21.131 5.00144C26.2947 8.75512 27.4392 15.9617 23.709 21.0942C20.5802 25.3869 14.979 26.9727 10.116 25.0783ZM29.8414 24.4143L29.5289 24.8049L29.568 28.8672L25.7401 27.5782L25.2714 27.7735C23.084 28.5859 20.7521 28.6523 18.5921 28.0469L18.5843 28.043C21.4708 27.1563 24.0878 25.3596 25.9744 22.7738C28.9586 18.6608 29.443 13.4931 27.7087 9.08713L27.7322 9.10275C28.6305 9.74724 29.4547 10.5519 30.1539 11.5245C32.9896 15.4149 32.8295 20.7114 29.8414 24.4143Z" fill="#6069E4"/>
<path id="Vector_3" d="M14.412 12.8135C13.5097 12.8135 12.8105 13.5127 12.8105 14.3759C12.8105 15.2391 13.5097 15.9383 14.412 15.9383C15.2362 15.9383 15.9354 15.2391 15.9354 14.3759C15.9354 13.5127 15.2362 12.8135 14.412 12.8135Z" fill="#6069E4"/>
</g>
</svg>
