<svg width="35" height="35" viewBox="0 0 35 35" fill="none" xmlns="http://www.w3.org/2000/svg">
<g id="thumb-up">
<path id="Vector" d="M32.7301 14.2306C32.7301 12.651 31.4494 11.3845 29.884 11.3845H20.8903L22.2564 4.88113C22.2849 4.73882 22.2991 4.58228 22.2991 4.42575C22.2991 3.84229 22.0572 3.30153 21.673 2.91731L20.1645 1.4231L10.8008 10.7868C10.2743 11.3134 9.9612 12.0249 9.9612 12.8076V27.0381C9.9612 27.793 10.2611 28.5169 10.7948 29.0507C11.3286 29.5844 12.0525 29.8843 12.8073 29.8843H25.6148C26.796 29.8843 27.8064 29.1727 28.2333 28.1481L32.5309 18.1156C32.659 17.7883 32.7301 17.4467 32.7301 17.0767V14.2306ZM1.42285 29.8843H7.11509V12.8076H1.42285V29.8843Z" fill="#6069E4"/>
</g>
</svg>
