<svg width="185" height="185" viewBox="0 0 185 185" fill="none" xmlns="http://www.w3.org/2000/svg">
<path fill-rule="evenodd" clip-rule="evenodd" d="M123.333 69.3748C123.333 77.5523 120.084 85.3949 114.302 91.1773C108.519 96.9597 100.677 100.208 92.4993 100.208C84.3218 100.208 76.4793 96.9597 70.6969 91.1773C64.9145 85.3949 61.666 77.5523 61.666 69.3748C61.666 61.1973 64.9145 53.3547 70.6969 47.5724C76.4793 41.79 84.3218 38.5415 92.4993 38.5415C100.677 38.5415 108.519 41.79 114.302 47.5724C120.084 53.3547 123.333 61.1973 123.333 69.3748ZM107.916 69.3748C107.916 73.4636 106.292 77.3849 103.401 80.2761C100.509 83.1673 96.5881 84.7915 92.4993 84.7915C88.4106 84.7915 84.4893 83.1673 81.5981 80.2761C78.7069 77.3849 77.0827 73.4636 77.0827 69.3748C77.0827 65.2861 78.7069 61.3648 81.5981 58.4736C84.4893 55.5824 88.4106 53.9582 92.4993 53.9582C96.5881 53.9582 100.509 55.5824 103.401 58.4736C106.292 61.3648 107.916 65.2861 107.916 69.3748Z" fill="black"/>
<path fill-rule="evenodd" clip-rule="evenodd" d="M92.4997 7.70825C45.6715 7.70825 7.70801 45.6718 7.70801 92.4999C7.70801 139.328 45.6715 177.292 92.4997 177.292C139.328 177.292 177.291 139.328 177.291 92.4999C177.291 45.6718 139.328 7.70825 92.4997 7.70825ZM23.1247 92.4999C23.1247 108.61 28.6207 123.441 37.8322 135.219C44.3012 126.724 52.6468 119.839 62.217 115.103C71.7871 110.367 82.3227 107.907 93.0007 107.917C103.541 107.907 113.944 110.302 123.417 114.922C132.891 119.541 141.185 126.262 147.668 134.572C154.347 125.812 158.844 115.588 160.787 104.745C162.73 93.9025 162.063 82.753 158.841 72.2192C155.62 61.6853 149.936 52.0701 142.261 44.169C134.585 36.2678 125.139 30.308 114.703 26.7826C104.267 23.2572 93.141 22.2675 82.2465 23.8955C71.352 25.5236 61.0018 29.7224 52.0523 36.1447C43.1027 42.567 35.8111 51.0281 30.7808 60.8279C25.7505 70.6277 23.1261 81.4845 23.1247 92.4999ZM92.4997 161.875C76.5739 161.899 61.1288 156.42 48.778 146.366C53.7493 139.249 60.3662 133.438 68.0657 129.428C75.7652 125.418 84.3195 123.327 93.0007 123.333C101.574 123.326 110.024 125.365 117.651 129.28C125.278 133.194 131.861 138.872 136.853 145.842C124.407 156.222 108.707 161.898 92.4997 161.875Z" fill="black"/>
</svg>
