<svg width="13" height="13" viewBox="0 0 13 13" fill="none" xmlns="http://www.w3.org/2000/svg">
<path d="M4.71699 12.8879C4.5606 12.8879 4.41062 12.8219 4.30004 12.7046C4.18946 12.5873 4.12733 12.4281 4.12733 12.2621V10.385H1.76868C1.4559 10.385 1.15594 10.2532 0.934772 10.0185C0.713605 9.7838 0.589355 9.4655 0.589355 9.1336V1.62508C0.589355 0.930539 1.12005 0.373657 1.76868 0.373657H11.2033C11.5161 0.373657 11.816 0.505503 12.0372 0.74019C12.2584 0.974876 12.3826 1.29318 12.3826 1.62508V9.1336C12.3826 9.4655 12.2584 9.7838 12.0372 10.0185C11.816 10.2532 11.5161 10.385 11.2033 10.385H7.60634L5.42459 12.7064C5.30665 12.8253 5.15924 12.8879 5.01182 12.8879H4.71699ZM5.30665 9.1336V11.0608L7.12282 9.1336H11.2033V1.62508H1.76868V9.1336H5.30665Z" fill="#161835"/>
</svg>
