<svg width="15" height="14" viewBox="0 0 15 14" fill="none" xmlns="http://www.w3.org/2000/svg">
<path d="M3.41438 5.32773V13.1366H0.841309V5.32773H3.41438ZM5.98745 13.1366C5.64624 13.1366 5.31901 12.9995 5.07774 12.7554C4.83646 12.5113 4.70092 12.1803 4.70092 11.8351V5.32773C4.70092 4.96983 4.84244 4.64446 5.08045 4.41019L9.31315 0.121826L9.99501 0.811609C10.1687 0.987308 10.2781 1.22808 10.2781 1.49488L10.2588 1.70312L9.64765 4.677H13.7067C14.4207 4.677 14.9932 5.26266 14.9932 5.97847V7.27995C14.9932 7.44914 14.961 7.60532 14.9032 7.75499L12.9605 12.3427C12.7675 12.8112 12.3108 13.1366 11.7769 13.1366H5.98745ZM5.98745 11.8351H11.7962L13.7067 7.27995V5.97847H8.05234L8.77924 2.51654L5.98745 5.34726V11.8351Z" fill="#161835"/>
</svg>
