<svg width="40" height="40" viewBox="0 0 40 40" fill="none" xmlns="http://www.w3.org/2000/svg">
<rect width="40" height="40" rx="20" fill="white"/>
<g clip-path="url(#clip0_206_259)">
<path d="M19.9999 8C17.1505 8.00012 14.3941 9.03979 12.224 10.933C10.0538 12.8262 8.61143 15.4493 8.15499 18.3331C7.69855 21.2169 8.25781 24.1731 9.7327 26.6727C11.2076 29.1724 13.5019 31.0524 16.205 31.9764C16.805 32.0841 17.03 31.715 17.03 31.392C17.03 31.0998 17.015 30.1309 17.015 29.1005C14 29.6695 13.22 28.347 12.98 27.6549C12.7137 26.9818 12.2915 26.3853 11.75 25.917C11.33 25.6863 10.73 25.1173 11.735 25.1019C12.1187 25.1446 12.4868 25.2815 12.808 25.501C13.1291 25.7205 13.394 26.0162 13.58 26.363C13.7441 26.6653 13.9648 26.9314 14.2294 27.1461C14.494 27.3608 14.7974 27.5198 15.122 27.6141C15.4467 27.7084 15.7863 27.7361 16.1214 27.6956C16.4565 27.6551 16.7806 27.5471 17.0749 27.378C17.1269 26.7525 17.3988 26.1677 17.84 25.7325C15.17 25.4249 12.38 24.3637 12.38 19.6576C12.3631 18.4348 12.8032 17.2518 13.61 16.351C13.2431 15.2883 13.2861 14.122 13.73 13.0906C13.73 13.0906 14.7349 12.7676 17.03 14.3517C18.9935 13.798 21.0664 13.798 23.0299 14.3517C25.3249 12.7523 26.3299 13.0906 26.3299 13.0906C26.7739 14.122 26.8168 15.2883 26.4499 16.351C27.2591 17.2502 27.6996 18.4343 27.6799 19.6576C27.6799 24.379 24.8749 25.4249 22.2049 25.7325C22.4913 26.0301 22.7119 26.3874 22.8516 26.7801C22.9914 27.1729 23.0471 27.5918 23.0149 28.0086C23.0149 29.6542 22.9999 30.9768 22.9999 31.3921C22.9999 31.7151 23.2249 32.0995 23.8249 31.9765C26.5233 31.045 28.811 29.1605 30.2796 26.6596C31.7482 24.1586 32.3021 21.2039 31.8425 18.3229C31.3829 15.442 29.9397 12.8222 27.7705 10.9313C25.6012 9.04045 22.8472 8.00152 19.9999 8Z" fill="#737381"/>
</g>
<defs>
<clipPath id="clip0_206_259">
<rect width="24" height="24" fill="white" transform="translate(8 8)"/>
</clipPath>
</defs>
</svg>
