<svg width="40" height="40" viewBox="0 0 40 40" fill="none" xmlns="http://www.w3.org/2000/svg">
<rect width="40" height="40" rx="20" fill="white"/>
<g clip-path="url(#clip0_206_255)">
<path d="M16.0006 20C16.0006 17.791 17.791 15.9997 20 15.9997C22.209 15.9997 24.0003 17.791 24.0003 20C24.0003 22.209 22.209 24.0003 20 24.0003C17.791 24.0003 16.0006 22.209 16.0006 20ZM13.8381 20C13.8381 23.4032 16.5968 26.1619 20 26.1619C23.4032 26.1619 26.1619 23.4032 26.1619 20C26.1619 16.5968 23.4032 13.8381 20 13.8381C16.5968 13.8381 13.8381 16.5968 13.8381 20ZM24.9657 13.5939C24.9657 14.3887 25.6103 15.0342 26.4061 15.0342C27.201 15.0342 27.8465 14.3887 27.8465 13.5939C27.8465 12.799 27.2019 12.1544 26.4061 12.1544C25.6103 12.1544 24.9657 12.799 24.9657 13.5939ZM15.1515 29.7677C13.9816 29.7144 13.3457 29.5195 12.9231 29.3548C12.3628 29.1367 11.9635 28.8769 11.5428 28.4572C11.1231 28.0375 10.8624 27.6381 10.6452 27.0779C10.4805 26.6553 10.2856 26.0194 10.2323 24.8494C10.1742 23.5845 10.1625 23.2045 10.1625 20C10.1625 16.7955 10.1751 16.4165 10.2323 15.1506C10.2856 13.9806 10.4814 13.3457 10.6452 12.9221C10.8633 12.3619 11.1231 11.9625 11.5428 11.5418C11.9625 11.1221 12.3619 10.8614 12.9231 10.6443C13.3457 10.4795 13.9816 10.2847 15.1515 10.2313C16.4165 10.1732 16.7964 10.1616 20 10.1616C23.2045 10.1616 23.5835 10.1742 24.8494 10.2313C26.0194 10.2847 26.6543 10.4805 27.0779 10.6443C27.6381 10.8614 28.0375 11.1221 28.4582 11.5418C28.8779 11.9616 29.1376 12.3619 29.3557 12.9221C29.5205 13.3447 29.7153 13.9806 29.7687 15.1506C29.8268 16.4165 29.8384 16.7955 29.8384 20C29.8384 23.2036 29.8268 23.5835 29.7687 24.8494C29.7153 26.0194 29.5195 26.6553 29.3557 27.0779C29.1376 27.6381 28.8779 28.0375 28.4582 28.4572C28.0384 28.8769 27.6381 29.1367 27.0779 29.3548C26.6552 29.5195 26.0194 29.7144 24.8494 29.7677C23.5845 29.8258 23.2045 29.8375 20 29.8375C16.7964 29.8375 16.4165 29.8258 15.1515 29.7677ZM15.0527 8.0727C13.7751 8.13086 12.9027 8.33344 12.1399 8.63005C11.3509 8.93635 10.6821 9.34733 10.0142 10.0142C9.34733 10.6811 8.93635 11.3499 8.63005 12.1399C8.33344 12.9027 8.13086 13.7751 8.0727 15.0527C8.01357 16.3321 8 16.7412 8 20C8 23.2588 8.01357 23.6679 8.0727 24.9473C8.13086 26.2249 8.33344 27.0973 8.63005 27.8601C8.93635 28.6491 9.34636 29.3189 10.0142 29.9858C10.6811 30.6527 11.3499 31.0627 12.1399 31.37C12.9037 31.6666 13.7751 31.8691 15.0527 31.9273C16.3331 31.9855 16.7412 32 20 32C23.2598 32 23.6679 31.9864 24.9473 31.9273C26.2249 31.8691 27.0973 31.6666 27.8601 31.37C28.6491 31.0627 29.3179 30.6527 29.9858 29.9858C30.6527 29.3189 31.0627 28.6491 31.3699 27.8601C31.6666 27.0973 31.8701 26.2249 31.9273 24.9473C31.9855 23.6669 31.999 23.2588 31.999 20C31.999 16.7412 31.9855 16.3321 31.9273 15.0527C31.8691 13.7751 31.6666 12.9027 31.3699 12.1399C31.0627 11.3509 30.6527 10.6821 29.9858 10.0142C29.3189 9.34733 28.6491 8.93635 27.8611 8.63005C27.0973 8.33344 26.2249 8.12989 24.9483 8.0727C23.6688 8.01454 23.2598 8 20.001 8C16.7412 8 16.3331 8.01357 15.0527 8.0727Z" fill="#737381"/>
</g>
<defs>
<clipPath id="clip0_206_255">
<rect width="24" height="24" fill="white" transform="translate(8 8)"/>
</clipPath>
</defs>
</svg>
